Simulation
nRows=32
nColumns=15
endheader
time  TH_x TH_y TH_z SC_y  SC_z  SC_x  AC_y  AC_z  AC_x  GH_y  GH_z  GH_yy  EL_x  PS_y
0.595  0.000000  0.000000  0.000000  -34.12918084635065  2.472747587268584  2.64499004581098  51.45598979604165  7.7287124049691265  -6.193434732619581  -2.134121951754846  34.939248592845765  6.103317674772154  24.41045876095402  0.000000
0.6069  0.000000  0.000000  0.000000  -34.23286105510496  2.4527740623540626  2.711865500020627  51.522972548145006  7.916115509223874  -6.1931229742038765  -1.8209065845118269  35.70923368811283  5.53847556241363  24.263712609233277  0.000000
0.6187999999999999  0.000000  0.000000  0.000000  -34.336317036949396  2.430110450718601  2.77919710107392  51.5942701804024  8.109041443644674  -6.191951342045165  -1.5034805048106654  36.460836842584  4.993251450575847  24.109788999988904  0.000000
0.6306999999999999  0.000000  0.000000  0.000000  -34.440178289748694  2.405770840596844  2.846768161024768  51.66962206530045  8.30750323947075  -6.188620376270656  -1.183704313027769  37.193763755618356  4.469245667214622  23.949639371836213  0.000000
0.6426  0.000000  0.000000  0.000000  -34.543466688800955  2.380554496999139  2.9142347372332487  51.74909201927174  8.511630685089713  -6.182191208929909  -0.8633362234548465  37.90774046866566  3.967465014125433  23.78413631795863  0.000000
0.6545  0.000000  0.000000  0.000000  -34.64680230918117  2.355421351437817  2.981482060063998  51.83247885749919  8.72155388745689  -6.171930215913985  -0.5440932158492495  38.60260603745254  3.488968799868645  23.614150881986326  0.000000
0.6664  0.000000  0.000000  0.000000  -34.749214073356605  2.3311890781982094  3.048421680310718  51.91964546012853  8.937334550427309  -6.1572133822181465  -0.2277927532456089  39.27822364965907  3.0347025861641486  23.440636514357717  0.000000
0.6782999999999999  0.000000  0.000000  0.000000  -34.85156614183105  2.308730564453737  3.115284019752554  52.01026831620117  9.158960594874268  -6.137561146991784  0.0839504142978263  39.93460063231756  2.6053803906917823  23.26452501752044  0.000000
0.6901999999999999  0.000000  0.000000  0.000000  -34.95313546354493  2.2887666320631683  3.1821628010937646  52.10417239215352  9.38641459394664  -6.112547258295802  0.38948725656904987  40.571784923332  2.2015436925469363  23.086774962682103  0.000000
0.7021  0.000000  0.000000  0.000000  -35.05485775046624  2.2720692299106013  3.249420938894251  52.20093789579158  9.619641599394793  -6.081826755845611  0.6872166430432968  41.18989630418424  1.823554351929112  22.90830234545067  0.000000
0.714  0.000000  0.000000  0.000000  -35.156055716486414  2.2592964917930365  3.317262985432158  52.300369572312334  9.85856039065687  -6.045050766881342  0.9754243071754377  41.789063285008204  1.471751247851217  22.73004534036733  0.000000
0.7259  0.000000  0.000000  0.000000  -35.25778174829112  2.251280915280123  3.3861362429136332  52.402058065871145  10.10296786974756  -6.001856766874186  1.2526010518289474  42.36946705961601  1.146272723277113  22.552894646019897  0.000000
0.7377999999999999  0.000000  0.000000  0.000000  -35.359423267056826  2.248740481950547  3.4563208745093816  52.5057886129473  10.352606178502034  -5.951912647153778  1.5172478545020895  42.93127879079421  0.8470741482515246  22.377740157325995  0.000000
0.7496999999999999  0.000000  0.000000  0.000000  -35.46205831850028  2.2524888514770915  3.528357798521404  52.61110497616843  10.607118869759148  -5.894881943627915  1.767975370252313  43.474695225066306  0.5739974565085181  22.205462028616353  0.000000
0.7615999999999999  0.000000  0.000000  0.000000  -35.565091275189104  2.263205378706106  3.6025745357343797  52.71778104889586  10.866080809967658  -5.830463068942625  2.0033869967195175  43.999914670328124  0.32675381732755987  22.03691207593274  0.000000
0.7735  0.000000  0.000000  0.000000  -35.66961042415861  2.281624654020667  3.6795121485729076  52.82533777601204  11.129008526465453  -5.758320686520248  2.2222229410878436  44.507150841755234  0.10495507641018478  21.87292459588488  0.000000
0.7854  0.000000  0.000000  0.000000  -35.77500950619826  2.3083085955496627  3.7592580627098524  52.933512020334064  11.395553536924977  -5.678037920681899  2.4233061946217114  44.996607435069734  -0.09195243306818694  21.71429225315141  0.000000
0.7972999999999999  0.000000  0.000000  0.000000  -35.882384052962294  2.3438740575943746  3.842216322728849  53.04186912923836  11.66522088020519  -5.589300286751078  2.6057796567407565  45.46850290230961  -0.264737584015406  21.56170398884985  0.000000
0.8091999999999999  0.000000  0.000000  0.000000  -35.9910672318396  2.3887091812591783  3.9287097408547487  53.15019194392042  11.937352752018304  -5.492001853714609  2.768890674854114  45.92304607883897  -0.4143141361749714  21.41585230539133  0.000000
0.8210999999999999  0.000000  0.000000  0.000000  -36.10202551440393  2.4431993935082423  4.0192997848243985  53.25803477675281  12.211239658999947  -5.386094787743398  2.9121146138253002  46.360422551602774  -0.5416678870133506  21.277373822044265  0.000000
0.833  0.000000  0.000000  0.000000  -36.214412933609964  2.5074903847184973  4.11426750477747  53.36521559401486  12.486134673277963  -5.271673127320182  3.03504963807783  46.780787441673574  -0.6479569784242561  21.146804146372517  0.000000
0.8449  0.000000  0.000000  0.000000  -36.328981333634076  2.5817337856110725  4.214189013780043  53.4712966385679  12.761205129029351  -5.148903624953753  3.1375861512540952  47.18421460996648  -0.7344082242952088  21.024598352262835  0.000000
0.8567999999999999  0.000000  0.000000  0.000000  -36.4445920106523  2.6658770632505355  4.3193532493777225  53.576052338118636  13.035563845893467  -5.018163796561346  3.219798404868181  47.57070681207754  -0.8022687935591029  20.91119376791894  0.000000
0.8686999999999999  0.000000  0.000000  0.000000  -36.56185513769021  2.759888630319869  4.430305775087617  53.67904418158036  13.308223119442218  -4.879880656726708  3.282289832964565  47.94019350476973  -0.8530222015402774  20.806972258942228  0.000000
0.8805999999999999  0.000000  0.000000  0.000000  -36.67967574060907  2.863405212761794  4.547205091942477  53.780083540855  13.578154483066248  -4.734569063367489  3.326042209987018  48.29261284807709  -0.8884783929533306  20.712206835313545  0.000000
0.8925  0.000000  0.000000  0.000000  -36.79835593786965  2.9759465036313837  4.6703584178731266  53.878744686302554  13.844415150604888  -4.583021319243165  3.352147456142071  48.62776188533278  -0.9103052062926872  20.627068931607514  0.000000
0.9044  0.000000  0.000000  0.000000  -36.91608893565008  3.096647854268883  4.799708887018835  53.97489540841233  14.106093454784068  -4.426382446827582  3.3615700320828497  48.94529248571342  -0.9199797631462167  20.55161188340659  0.000000
0.9162999999999999  0.000000  0.000000  0.000000  -37.03284668717495  3.2245948546872287  4.935519382105537  54.06831722242167  14.362187217720049  -4.2658397567028175  3.355720837192403  49.24466868628414  -0.9189938424991373  20.48566862055068  0.000000
0.9281999999999999  0.000000  0.000000  0.000000  -37.146715974270464  3.3585815598456565  5.077589585556556  54.15904658663577  14.611646214536313  -4.1027729616927076  3.336419121138006  49.52524658547983  -0.9090997418898733  20.42896222376  0.000000
0.9400999999999999  0.000000  0.000000  0.000000  -37.25725192246226  3.4974510285941234  5.225891055314522  54.24680137903071  14.85344519530906  -3.9386947935673144  3.3059373370649205  49.786081720543706  -0.8920112858625714  20.381107651718334  0.000000
0.952  0.000000  0.000000  0.000000  -37.361853143332276  3.639799532314639  5.379794453751083  54.331415370076485  15.086559545966859  -3.7753292491434416  3.2668265020744616  50.02606859011202  -0.8694879551371156  20.34159938337419  0.000000
0.9639  0.000000  0.000000  0.000000  -37.459337758157794  3.784290313328159  5.5388015583075525  54.41240197243015  15.310003099139346  -3.6145106091101145  3.2220765586507305  50.24376321219501  -0.8432128245731958  20.309737474204383  0.000000
